<svg id="Capa_1" enable-background="new 0 0 512 512" height="512" viewBox="0 0 512 512" width="512" xmlns="http://www.w3.org/2000/svg"><g><path d="m455.877 355.599h-368.912c-9.797 0-17.738-7.942-17.738-17.738v-229.926c0-9.797 7.942-17.738 17.738-17.738h368.912c9.797 0 17.738 7.942 17.738 17.738v229.926c.001 9.796-7.941 17.738-17.738 17.738z" fill="#e7a561"/><path d="m455.877 90.197h-26.526c9.797 0 17.738 7.942 17.738 17.738v229.926c0 9.797-7.942 17.738-17.738 17.738h26.526c9.797 0 17.738-7.942 17.738-17.738v-229.926c.001-9.797-7.941-17.738-17.738-17.738z" fill="#e49542"/><path d="m473.616 152.233-202.194 52.002-202.195-52.002v-44.298c0-9.797 7.942-17.738 17.738-17.738h368.912c9.797 0 17.738 7.942 17.738 17.738v44.298z" fill="#ffe07d"/><path d="m455.877 90.197h-26.526c9.797 0 17.738 7.942 17.738 17.738v51.12l26.526-6.822v-44.298c.001-9.797-7.941-17.738-17.738-17.738z" fill="#ffd064"/><circle cx="445.017" cy="362.321" fill="#b3e59f" r="59.482"/><path d="m445.018 302.838c-4.608 0-9.086.541-13.393 1.533 26.398 6.078 46.089 29.706 46.089 57.949 0 28.244-19.691 51.872-46.089 57.95 4.307.991 8.785 1.533 13.393 1.533 32.851 0 59.482-26.631 59.482-59.482 0-32.852-26.631-59.483-59.482-59.483z" fill="#95d6a4"/><g><path d="m459.333 344.119-20.492 20.493-8.14-8.141c-2.929-2.929-7.678-2.93-10.606-.001-2.93 2.929-2.93 7.678-.001 10.606l13.443 13.444c1.406 1.407 3.314 2.197 5.304 2.197s3.896-.79 5.304-2.196l25.796-25.796c2.929-2.93 2.929-7.678 0-10.607-2.93-2.927-7.678-2.927-10.608.001z"/><path d="m30.218 271.587c0-4.143-3.358-7.5-7.5-7.5h-15.218c-4.142 0-7.5 3.357-7.5 7.5s3.358 7.5 7.5 7.5h15.218c4.142 0 7.5-3.358 7.5-7.5z"/><path d="m175.067 117.126h-31.667c-4.142 0-7.5 3.357-7.5 7.5s3.358 7.5 7.5 7.5h31.667c4.142 0 7.5-3.357 7.5-7.5s-3.358-7.5-7.5-7.5z"/><path d="m7.5 172.129h24.448c4.142 0 7.5-3.357 7.5-7.5s-3.358-7.5-7.5-7.5h-24.448c-4.142 0-7.5 3.357-7.5 7.5s3.358 7.5 7.5 7.5z"/><path d="m481.116 305.943v-198.008c0-13.916-11.322-25.238-25.238-25.238h-368.913c-13.917 0-25.238 11.322-25.238 25.238v9.19h-54.227c-4.142 0-7.5 3.357-7.5 7.5s3.358 7.5 7.5 7.5h54.227v69.558h-54.227c-4.142 0-7.5 3.357-7.5 7.5s3.358 7.5 7.5 7.5h54.227v47.403h-9.951c-4.142 0-7.5 3.357-7.5 7.5s3.358 7.5 7.5 7.5h9.951v34.583h-29.779c-4.142 0-7.5 3.357-7.5 7.5s3.358 7.5 7.5 7.5h29.779v9.19c0 13.916 11.322 25.238 25.238 25.238h15.056c.004 0 .009.001.013.001.006 0 .011-.001.017-.001h117.947c4.142 0 7.5-3.357 7.5-7.5s-3.358-7.5-7.5-7.5h-103.477c110.983-157.211 104.462-147.672 105.04-148.943l47.992 12.343c1.226.315 2.511.315 3.736 0l47.993-12.343c.578 1.27-4.261-5.886 79.562 112.875-10.564 9.29-18.186 21.839-21.276 36.068h-129.583c-4.142 0-7.5 3.357-7.5 7.5s3.358 7.5 7.5 7.5h128.07c.421 36.576 30.289 66.204 66.963 66.204 13.725 0 26.928-4.135 38.183-11.958 3.401-2.363 4.242-7.037 1.878-10.438-2.362-3.4-7.035-4.243-10.438-1.878-8.729 6.067-18.973 9.274-29.622 9.274-28.663 0-51.982-23.319-51.982-51.982s23.319-51.981 51.982-51.981 51.981 23.319 51.981 51.982c0 7.977-1.762 15.632-5.236 22.755-1.815 3.723-.27 8.213 3.453 10.029 3.725 1.815 8.213.27 10.029-3.453 4.481-9.188 6.754-19.057 6.754-29.331 0-23.646-12.329-44.455-30.884-56.377zm-209.695-109.452-134.993-34.719c-4.009-1.032-8.1 1.385-9.132 5.396-1.032 4.012 1.384 8.1 5.396 9.132l73.469 18.896-108.005 152.902h-11.191c-5.646 0-10.238-4.593-10.238-10.238v-9.19h16.314c4.142 0 7.5-3.357 7.5-7.5s-3.358-7.5-7.5-7.5h-16.314v-34.583h40.795c4.142 0 7.5-3.357 7.5-7.5s-3.358-7.5-7.5-7.5h-40.795v-47.403h25.314c4.142 0 7.5-3.357 7.5-7.5s-3.358-7.5-7.5-7.5h-25.314v-39.777l26.882 6.914c.627.161 1.255.238 1.874.238 3.34 0 6.388-2.249 7.258-5.634 1.032-4.012-1.384-8.1-5.396-9.132l-30.619-7.875v-14.292h40.795c4.142 0 7.5-3.357 7.5-7.5s-3.358-7.5-7.5-7.5h-40.794v-9.19c0-5.646 4.593-10.238 10.238-10.238h368.912c5.646 0 10.238 4.593 10.238 10.238v38.483zm141.711 106.936-76.45-108.231 129.434-33.289v136.856c-6.639-2.209-13.727-3.424-21.099-3.424-11.535 0-22.399 2.931-31.885 8.088z"/></g></g></svg>